<svg xmlns="http://www.w3.org/2000/svg" width="1440" height="820" viewBox="0 0 1440 820">
<defs>
<linearGradient id="bg" x1="0" y1="0" x2="1" y2="1"><stop offset="0" stop-color="#0B1220"/><stop offset="1" stop-color="#4C1D95" stop-opacity="0.55"/></linearGradient>
<radialGradient id="g1" cx=".5" cy=".5" r=".5"><stop offset="0" stop-color="#4C1D95" stop-opacity=".55"/><stop offset="1" stop-color="#4C1D95" stop-opacity="0"/></radialGradient>
<radialGradient id="g2" cx=".5" cy=".5" r=".5"><stop offset="0" stop-color="#C4B5FD" stop-opacity=".35"/><stop offset="1" stop-color="#C4B5FD" stop-opacity="0"/></radialGradient>
<linearGradient id="t" x1="0" x2="1"><stop offset="0" stop-color="#FFFFFF"/><stop offset="1" stop-color="#C4B5FD"/></linearGradient>
<pattern id="grid" width="40" height="40" patternUnits="userSpaceOnUse"><path d="M40 0H0V40" fill="none" stroke="#FFFFFF" stroke-opacity=".05"/></pattern>
<style>text{font-family:'Segoe UI',-apple-system,BlinkMacSystemFont,'Helvetica Neue',Arial,sans-serif}</style>
</defs>
<rect width="1440" height="820" fill="#0B1220"/><rect width="1440" height="820" fill="url(#bg)"/><rect width="1440" height="820" fill="url(#grid)"/>
<circle cx="1180" cy="230" r="420" fill="url(#g1)"/><circle cx="1000" cy="760" r="320" fill="url(#g2)"/>
<g transform="translate(1110 410)" opacity=".95"><circle r="210" fill="none" stroke="#C4B5FD" stroke-opacity=".25" stroke-width="2"/><circle r="150" fill="none" stroke="#C4B5FD" stroke-opacity=".35" stroke-width="2"/><rect x="-95" y="-96" width="190" height="52" rx="12" fill="#C4B5FD" fill-opacity=".12" stroke="#C4B5FD" stroke-width="4"/><path d="M-70 -70 l12 12 l22 -24" stroke="#C4B5FD" stroke-width="7" fill="none" stroke-linecap="round" stroke-linejoin="round" opacity="1"/><rect x="-20" y="-75" width="90" height="10" rx="5" fill="#C4B5FD" fill-opacity=".5"/><rect x="-95" y="-26" width="190" height="52" rx="12" fill="#C4B5FD" fill-opacity=".12" stroke="#C4B5FD" stroke-width="4"/><path d="M-70 0 l12 12 l22 -24" stroke="#C4B5FD" stroke-width="7" fill="none" stroke-linecap="round" stroke-linejoin="round" opacity="1"/><rect x="-20" y="-5" width="70" height="10" rx="5" fill="#C4B5FD" fill-opacity=".5"/><rect x="-95" y="44" width="190" height="52" rx="12" fill="#C4B5FD" fill-opacity=".12" stroke="#C4B5FD" stroke-width="4"/><path d="M-70 70 l12 12 l22 -24" stroke="#C4B5FD" stroke-width="7" fill="none" stroke-linecap="round" stroke-linejoin="round" opacity="0.25"/><rect x="-20" y="65" width="50" height="10" rx="5" fill="#C4B5FD" fill-opacity=".5"/></g>
<g transform="translate(80 110)"><rect width="476.79999999999995" height="44" rx="22" fill="#C4B5FD" fill-opacity=".16" stroke="#C4B5FD" stroke-opacity=".5"/><text x="238.39999999999998" y="29" font-size="19" font-weight="600" fill="#C4B5FD" text-anchor="middle">Full-Stack Internship · Scrum team of 5</text></g>
<text x="76" y="290" font-size="128" font-weight="800" fill="url(#t)">Aurora</text>
<text x="80" y="380" font-size="64" font-weight="700" fill="#E6EDF3" fill-opacity=".85">Task Manager</text>
<text x="80" y="470" font-size="28" fill="#C9D1D9">Spring Boot REST API (Controller–Service–Repository, JPA)</text><text x="80" y="510" font-size="28" fill="#C9D1D9">with an Angular front end, built over three sprints.</text><g transform="translate(80 640)"><rect width="116.5" height="44" rx="22" fill="#FFFFFF" fill-opacity="0.08" stroke="#FFFFFF" stroke-opacity="0.18"/><text x="58.25" y="29" font-size="19" fill="#E6EDF3" text-anchor="middle">Angular</text></g><g transform="translate(208.5 640)"><rect width="162.5" height="44" rx="22" fill="#FFFFFF" fill-opacity="0.08" stroke="#FFFFFF" stroke-opacity="0.18"/><text x="81.25" y="29" font-size="19" fill="#E6EDF3" text-anchor="middle">Spring Boot</text></g><g transform="translate(383 640)"><rect width="82" height="44" rx="22" fill="#FFFFFF" fill-opacity="0.08" stroke="#FFFFFF" stroke-opacity="0.18"/><text x="41" y="29" font-size="19" fill="#E6EDF3" text-anchor="middle">Java</text></g><g transform="translate(477 640)"><rect width="151" height="44" rx="22" fill="#FFFFFF" fill-opacity="0.08" stroke="#FFFFFF" stroke-opacity="0.18"/><text x="75.5" y="29" font-size="19" fill="#E6EDF3" text-anchor="middle">PostgreSQL</text></g><g transform="translate(640 640)"><rect width="93.5" height="44" rx="22" fill="#FFFFFF" fill-opacity="0.08" stroke="#FFFFFF" stroke-opacity="0.18"/><text x="46.75" y="29" font-size="19" fill="#E6EDF3" text-anchor="middle">Scrum</text></g>
</svg>